<svg width="27" height="35" viewBox="0 0 27 35" fill="none" xmlns="http://www.w3.org/2000/svg">
<path d="M0.929446 34.2887C0.309815 33.8278 0 33.2822 0 32.6517C0 32.0224 0.309815 31.4774 0.929446 31.0165L19.0846 17.513L0.867482 3.96348C0.289161 3.53333 0 2.99565 0 2.35043C0 1.70522 0.309815 1.15217 0.929446 0.691304C1.54908 0.230435 2.28272 0 3.13037 0C3.97638 0 4.70919 0.230435 5.32882 0.691304L26.1484 16.2226C26.3963 16.407 26.5722 16.6067 26.6763 16.8217C26.7788 17.0368 26.83 17.2672 26.83 17.513C26.83 17.7588 26.7788 17.9893 26.6763 18.2043C26.5722 18.4194 26.3963 18.6191 26.1484 18.8035L5.26686 34.3348C4.68854 34.7649 3.97638 34.98 3.13037 34.98C2.28272 34.98 1.54908 34.7496 0.929446 34.2887Z" fill="white"/>
</svg>
