<svg width="27" height="35" viewBox="0 0 27 35" fill="none" xmlns="http://www.w3.org/2000/svg">
<path d="M21.5295 34.2584L0.68053 18.766C0.433064 18.5816 0.258189 18.3818 0.155903 18.1666C0.0519677 17.9515 0 17.7209 0 17.475C0 17.2291 0.0519677 16.9985 0.155903 16.7834C0.258189 16.5682 0.433064 16.3684 0.68053 16.184L21.5295 0.645514C22.1069 0.215171 22.8287 0 23.6948 0C24.5609 0 25.3033 0.230541 25.922 0.691623C26.5407 1.1527 26.85 1.69063 26.85 2.30541C26.85 2.92018 26.5407 3.45811 25.922 3.9192L7.7333 17.475L25.922 31.0308C26.4994 31.4611 26.7881 31.9911 26.7881 32.6206C26.7881 33.2514 26.4788 33.7973 25.8601 34.2584C25.2415 34.7195 24.5197 34.95 23.6948 34.95C22.8699 34.95 22.1482 34.7195 21.5295 34.2584V34.2584Z" fill="white"/>
</svg>
