<svg width="31" height="30" viewBox="0 0 31 30" fill="none" xmlns="http://www.w3.org/2000/svg">
<path d="M1.55 18V19.5C1.55 22.365 3.2085 24.855 5.6575 26.115L4.65 30H7.75L8.525 27H22.475L23.25 30H26.35L25.3425 26.115C26.5838 25.4778 27.6221 24.5252 28.3458 23.3597C29.0695 22.1942 29.4513 20.8598 29.45 19.5V18H31V15H3.1V4.5C3.1 4.10218 3.2633 3.72064 3.55398 3.43934C3.84467 3.15804 4.23892 3 4.65 3C5.425 3 6.014 3.51 6.2 4.185C5.2235 4.995 4.65 6.195 4.65 7.5H13.95C13.95 6.30653 13.4601 5.16193 12.588 4.31802C11.716 3.47411 10.5333 3 9.3 3H9.0365C8.401 1.26 6.6805 0 4.65 0C3.41674 0 2.234 0.474106 1.36195 1.31802C0.48991 2.16193 9.53674e-07 3.30653 9.53674e-07 4.5V18H1.55ZM4.65 18H26.35V19.5C26.35 20.6935 25.8601 21.8381 24.988 22.682C24.116 23.5259 22.9333 24 21.7 24H9.3C8.06674 24 6.884 23.5259 6.01195 22.682C5.13991 21.8381 4.65 20.6935 4.65 19.5V18Z" fill="black"/>
</svg>
