<svg width="32" height="25" viewBox="0 0 32 25" fill="none" xmlns="http://www.w3.org/2000/svg">
<path d="M26.1818 3.33333H14.5455V15H2.90909V0H0V25H2.90909V20H29.0909V25H32V10C32 8.23189 31.387 6.5362 30.2959 5.28595C29.2048 4.03571 27.7249 3.33333 26.1818 3.33333ZM8.72727 13.3333C9.88458 13.3333 10.9945 12.8065 11.8128 11.8689C12.6312 10.9312 13.0909 9.65942 13.0909 8.33333C13.0909 7.00725 12.6312 5.73548 11.8128 4.7978C10.9945 3.86012 9.88458 3.33333 8.72727 3.33333C7.56996 3.33333 6.46006 3.86012 5.64172 4.7978C4.82338 5.73548 4.36364 7.00725 4.36364 8.33333C4.36364 9.65942 4.82338 10.9312 5.64172 11.8689C6.46006 12.8065 7.56996 13.3333 8.72727 13.3333V13.3333Z" fill="black"/>
</svg>
