<svg width="22" height="23" viewBox="0 0 22 23" fill="none" xmlns="http://www.w3.org/2000/svg">
<path d="M6.58172 0.851807H15.5817C19.0103 0.851807 21.796 3.73107 21.796 7.27477V16.577C21.796 18.2805 21.1413 19.9142 19.9759 21.1187C18.8105 22.3233 17.2298 23 15.5817 23H6.58172C3.15315 23 0.367432 20.1207 0.367432 16.577V7.27477C0.367432 5.57129 1.02215 3.93759 2.18755 2.73305C3.35296 1.52851 4.93359 0.851807 6.58172 0.851807M6.36743 3.06662C5.34445 3.06662 4.36337 3.48664 3.64002 4.23429C2.91667 4.98193 2.51029 5.99596 2.51029 7.05329V16.7985C2.51029 19.0022 4.23529 20.7851 6.36743 20.7851H15.796C16.819 20.7851 17.8001 20.3651 18.5234 19.6175C19.2468 18.8698 19.6531 17.8558 19.6531 16.7985V7.05329C19.6531 4.84955 17.9281 3.06662 15.796 3.06662H6.36743ZM16.7067 4.72773C17.0619 4.72773 17.4026 4.87357 17.6537 5.13317C17.9049 5.39277 18.046 5.74486 18.046 6.11199C18.046 6.47912 17.9049 6.83121 17.6537 7.09081C17.4026 7.35041 17.0619 7.49625 16.7067 7.49625C16.3515 7.49625 16.0109 7.35041 15.7597 7.09081C15.5085 6.83121 15.3674 6.47912 15.3674 6.11199C15.3674 5.74486 15.5085 5.39277 15.7597 5.13317C16.0109 4.87357 16.3515 4.72773 16.7067 4.72773ZM11.0817 6.38884C12.5025 6.38884 13.8651 6.97221 14.8698 8.0106C15.8744 9.049 16.4389 10.4574 16.4389 11.9259C16.4389 13.3944 15.8744 14.8028 14.8698 15.8412C13.8651 16.8796 12.5025 17.4629 11.0817 17.4629C9.66091 17.4629 8.2983 16.8796 7.29365 15.8412C6.28899 14.8028 5.72457 13.3944 5.72457 11.9259C5.72457 10.4574 6.28899 9.049 7.29365 8.0106C8.2983 6.97221 9.66091 6.38884 11.0817 6.38884M11.0817 8.60366C10.2292 8.60366 9.41167 8.95368 8.80887 9.57671C8.20608 10.1998 7.86743 11.0448 7.86743 11.9259C7.86743 12.807 8.20608 13.652 8.80887 14.275C9.41167 14.8981 10.2292 15.2481 11.0817 15.2481C11.9342 15.2481 12.7518 14.8981 13.3546 14.275C13.9574 13.652 14.296 12.807 14.296 11.9259C14.296 11.0448 13.9574 10.1998 13.3546 9.57671C12.7518 8.95368 11.9342 8.60366 11.0817 8.60366Z" fill="white"/>
</svg>
