<svg width="21" height="21" viewBox="0 0 21 21" fill="none" xmlns="http://www.w3.org/2000/svg">
<path d="M18.6714 0.703857C19.2727 0.703857 19.8495 0.933214 20.2748 1.34147C20.7 1.74973 20.9389 2.30345 20.9389 2.88081V18.1195C20.9389 18.6969 20.7 19.2506 20.2748 19.6588C19.8495 20.0671 19.2727 20.2964 18.6714 20.2964H2.79834C2.19694 20.2964 1.62017 20.0671 1.19492 19.6588C0.769666 19.2506 0.530762 18.6969 0.530762 18.1195V2.88081C0.530762 2.30345 0.769666 1.74973 1.19492 1.34147C1.62017 0.933214 2.19694 0.703857 2.79834 0.703857H18.6714ZM18.1045 17.5753V11.8063C18.1045 10.8652 17.715 9.96266 17.0219 9.2972C16.3287 8.63174 15.3886 8.25789 14.4083 8.25789C13.4446 8.25789 12.3221 8.8239 11.7779 9.67291V8.4647H8.61466V17.5753H11.7779V12.2091C11.7779 11.3709 12.4809 10.6852 13.3539 10.6852C13.7749 10.6852 14.1786 10.8457 14.4763 11.1315C14.774 11.4173 14.9412 11.8049 14.9412 12.2091V17.5753H18.1045ZM4.92985 6.75579C5.43503 6.75579 5.91951 6.56313 6.27673 6.22019C6.63394 5.87726 6.83462 5.41214 6.83462 4.92715C6.83462 3.91487 5.98428 3.08762 4.92985 3.08762C4.42167 3.08762 3.93431 3.28143 3.57497 3.62641C3.21563 3.97139 3.01376 4.43928 3.01376 4.92715C3.01376 5.93943 3.87543 6.75579 4.92985 6.75579ZM6.50582 17.5753V8.4647H3.36523V17.5753H6.50582Z" fill="white"/>
</svg>
