<svg width="24" height="21" viewBox="0 0 24 21" fill="none" xmlns="http://www.w3.org/2000/svg">
<path d="M23.6327 3.00887C22.7689 3.41225 21.8377 3.67732 20.8729 3.8041C21.8602 3.19327 22.623 2.22516 22.982 1.06113C22.0509 1.63739 21.0188 2.04076 19.9306 2.27126C19.0443 1.28011 17.799 0.703857 16.3855 0.703857C13.7491 0.703857 11.5951 2.91667 11.5951 5.64811C11.5951 6.03996 11.64 6.42028 11.7185 6.77756C7.72469 6.57011 4.16838 4.59933 1.80125 1.61434C1.38616 2.34042 1.15057 3.19327 1.15057 4.09222C1.15057 5.80946 1.99197 7.33076 3.29333 8.19514C2.49681 8.19514 1.75638 7.96464 1.1057 7.61889V7.65346C1.1057 10.0507 2.76605 12.056 4.96491 12.5055C4.25895 12.704 3.51781 12.7316 2.79971 12.5862C3.10442 13.5687 3.70117 14.4284 4.50608 15.0444C5.311 15.6604 6.2836 16.0019 7.28716 16.0207C5.586 17.4042 3.47731 18.152 1.30763 18.1413C0.926197 18.1413 0.544764 18.1182 0.16333 18.0721C2.29487 19.4782 4.83028 20.2964 7.54519 20.2964C16.3855 20.2964 21.2432 12.7591 21.2432 6.22436C21.2432 6.00538 21.2431 5.79793 21.2319 5.57895C22.1743 4.88745 22.982 4.01155 23.6327 3.00887V3.00887Z" fill="white"/>
</svg>
