<svg width="30" height="31" viewBox="0 0 30 31" fill="none" xmlns="http://www.w3.org/2000/svg">
<path d="M15 0C11.8174 0 8.76516 1.24421 6.51472 3.45893C4.26428 5.67364 3 8.67744 3 11.8095C3 17.7586 7.5 22.7629 13.5 23.5157V25.0952H12C11.6022 25.0952 11.2206 25.2508 10.9393 25.5276C10.658 25.8044 10.5 26.1799 10.5 26.5714H0V29.5238H10.5C10.5 29.9153 10.658 30.2908 10.9393 30.5676C11.2206 30.8445 11.6022 31 12 31H18C18.3978 31 18.7794 30.8445 19.0607 30.5676C19.342 30.2908 19.5 29.9153 19.5 29.5238H30V26.5714H19.5C19.5 26.1799 19.342 25.8044 19.0607 25.5276C18.7794 25.2508 18.3978 25.0952 18 25.0952H16.5V23.5157C22.5 22.7776 27 17.7586 27 11.8095C27 8.67744 25.7357 5.67364 23.4853 3.45893C21.2348 1.24421 18.1826 0 15 0M15 2.95238C15 2.95238 16.11 4.8419 16.89 7.38095H13.11C13.89 4.8419 15 2.95238 15 2.95238ZM11.655 3.58714C11.25 4.32524 10.635 5.66857 10.11 7.38095H7.215C8.25 5.66857 9.75 4.32524 11.655 3.58714ZM18.345 3.6019C20.25 4.34 21.75 5.66857 22.785 7.38095H19.89C19.365 5.66857 18.75 4.32524 18.345 3.6019M6.135 10.3333H9.48C9.42 10.8205 9.375 11.3076 9.375 11.8095C9.375 12.3114 9.42 12.7986 9.48 13.2857H6.135C5.95337 12.3097 5.95337 11.3093 6.135 10.3333M12.48 10.3333H17.52C17.58 10.8205 17.625 11.3076 17.625 11.8095C17.625 12.3114 17.58 12.7986 17.52 13.2857H12.48C12.42 12.7986 12.375 12.3114 12.375 11.8095C12.375 11.3076 12.42 10.8205 12.48 10.3333ZM20.52 10.3333H23.865C24.0466 11.3093 24.0466 12.3097 23.865 13.2857H20.52C20.58 12.7986 20.625 12.3114 20.625 11.8095C20.625 11.3076 20.58 10.8205 20.52 10.3333ZM7.215 16.2381H10.11C10.635 17.9505 11.25 19.2938 11.655 20.0171C9.75 19.279 8.25 17.9505 7.215 16.2381M13.11 16.2381H16.89C16.11 18.7771 15 20.6667 15 20.6667C15 20.6667 13.89 18.7771 13.11 16.2381ZM19.89 16.2381H22.785C21.75 17.9505 20.25 19.2938 18.345 20.0319C18.75 19.2938 19.365 17.9505 19.89 16.2381Z" fill="black"/>
</svg>
